:SAMPLES-PER-SECOND 30
:FULLY-SPECIFIED
:DEGREES
419
root  -21.7888 38.8791 7.21291 8.51372 75.9231 13.96
RightUpLeg  -14.8323 -9.62071 -8.47266
RightLeg  -4.30824 2.94285 0.105885
RightFoot  -2.67251 -0.964451 12.397
RightToes  5.47152e-009 0 -3.6325e-017
Spine  8.67265 -0.687046 1.03043
Spine1  7.86743 0.760403 -6.00078
HEad  -7.81078 11.4432 -6.46863
LeftShoulder1  -0.27361 4.24937 -30.5627
LeftArm  4.32681 -2.44257 -42.6217
LeftForeArm  18.9094 -29.6605 -5.40392
LeftHand  -0.12242 0.996875 3.13497
RightShoulder  -0.522583 -5.05941 26.7906
RightArm  10.7705 -4.57163 48.1837
RightForeArm  13.8153 9.54074 6.01186
RightHand  -0.263887 0.796879 -5.03669
LeftUpLeg  13.2652 6.65387 -4.1748
LeftLeg  12.5309 -10.9839 -2.50166
LeftFoot  -17.5075 0.558271 8.3891
LeftToes  -4.29285e-010 1.49941e-010 2.15559e-012
420
root  -20.6828 38.5973 7.83373 9.70569 76.6427 15.3351
RightUpLeg  -15.72 -9.35925 -8.0725
RightLeg  -3.34696 -0.531274 0.352032
RightFoot  -3.35487 -0.792797 10.86
RightToes  5.47152e-009 0 -3.6325e-017
Spine  8.94132 -0.654581 1.3386
Spine1  8.23848 0.766262 -5.68311
HEad  -7.11739 11.0655 -6.58797
LeftShoulder1  -0.271749 4.2491 -30.3266
LeftArm  5.41296 -3.05534 -43.3043
LeftForeArm  16.9211 -26.9869 -4.8875
LeftHand  -0.111656 1.25386 2.99278
RightShoulder  -0.493284 -4.96559 26.9051
RightArm  10.0876 -4.66626 48.1335
RightForeArm  15.4327 7.95254 5.93529
RightHand  -0.214438 0.903119 -4.06936
LeftUpLeg  15.2739 6.71238 -3.39254
LeftLeg  13.1837 -12.0532 -2.50617
LeftFoot  -19.3939 0.674872 7.91974
LeftToes  -4.29285e-010 1.49941e-010 2.15559e-012
421
root  -19.4928 38.3413 8.47229 9.26979 77.4544 14.9422
RightUpLeg  -16.8495 -9.63272 -7.23971
RightLeg  1.53358 -4.79153 1.19261
RightFoot  -1.09691 -0.687231 8.205
RightToes  5.47152e-009 0 -3.6325e-017
Spine  8.98095 -0.777066 2.1451
Spine1  8.72756 0.541643 -5.13158
HEad  -6.71659 10.5882 -6.86109
LeftShoulder1  -0.253741 4.19643 -30.4894
LeftArm  6.54107 -2.71975 -43.6013
LeftForeArm  15.3081 -24.0793 -4.39983
LeftHand  -0.108998 1.03248 2.7779
RightShoulder  -0.501383 -4.99211 26.8533
RightArm  9.56136 -4.64615 48.1532
RightForeArm  16.2841 6.63552 5.75266
RightHand  -0.22958 0.528135 -4.55303
LeftUpLeg  17.1243 6.14409 -2.42141
LeftLeg  14.0587 -12.6146 -2.31369
LeftFoot  -20.8347 0.718145 7.11125
LeftToes  -4.29285e-010 1.49941e-010 2.15559e-012
422
root  -18.2972 38.2911 9.11534 6.73418 78.5965 11.9473
RightUpLeg  -18.7766 -10.1176 -5.6655
RightLeg  7.17473 -3.46376 1.06497
RightFoot  5.13332 -0.211105 1.43063
RightToes  5.47152e-009 0 -3.6325e-017
Spine  8.38199 -1.07749 3.75043
Spine1  9.55547 0.128351 -4.14615
HEad  -6.23127 10.3489 -6.62717
LeftShoulder1  -0.216505 4.09607 -30.398
LeftArm  7.13511 -1.4199 -43.6797
LeftForeArm  13.8949 -21.0791 -4.62131
LeftHand  -0.139397 1.17572 3.69348
RightShoulder  -0.563209 -5.15623 27.3142
RightArm  9.10171 -4.96499 47.6025
RightForeArm  17.1808 6.55848 5.49838
RightHand  -0.154777 -0.0476942 -3.39863
LeftUpLeg  18.8073 4.17246 -1.24104
LeftLeg  13.8773 -12.5064 -2.02649
LeftFoot  -20.6786 0.550005 5.22578
LeftToes  -4.29285e-010 1.49941e-010 2.15559e-012
423
root  -16.9421 38.1214 9.83289 1.84776 79.3098 6.8952
RightUpLeg  -19.8929 -10.7484 -3.82219
RightLeg  12.5965 -1.3883 0.269752
RightFoot  8.95579 -0.256824 1.75212
RightToes  5.47152e-009 0 -3.6325e-017
Spine  8.19786 -1.31751 5.56558
Spine1  9.58218 -0.0869217 -3.78332
HEad  -5.32346 10.5821 -7.02455
LeftShoulder1  -0.28644 4.27344 -31.0949
LeftArm  6.47892 0.130559 -42.9732
LeftForeArm  15.7116 -18.0689 -5.8935
LeftHand  -0.0828809 2.22205 2.69405
RightShoulder  -0.575995 -5.17454 27.7151
RightArm  8.64717 -5.35633 46.7598
RightForeArm  15.4892 6.63926 5.30919
RightHand  -0.1714 -0.065646 -3.74876
LeftUpLeg  19.8981 1.40824 0.0859283
LeftLeg  16.254 -11.3089 -2.67486
LeftFoot  -20.8335 0.33165 2.5134
LeftToes  -4.29285e-010 1.49941e-010 2.15559e-012
424
root  -15.5898 38.0285 10.4858 -6.8618 78.9036 -1.99011
RightUpLeg  -20.8446 -12.231 -1.02516
RightLeg  18.6169 0.902941 0.121906
RightFoot  6.15097 0.0841834 -0.266946
RightToes  5.47152e-009 0 -3.6325e-017
Spine  7.98198 -1.5582 9.07485
Spine1  10.0297 0.19396 -4.55427
HEad  -4.39137 11.0735 -7.59701
LeftShoulder1  -0.333142 4.39168 -31.3844
LeftArm  3.17178 2.74871 -42.8051
LeftForeArm  20.0566 -15.2308 -7.01608
LeftHand  -0.0536794 3.39052 2.12745
RightShoulder  -0.534082 -5.05446 27.6401
RightArm  8.74455 -4.97002 46.5785
RightForeArm  14.4662 6.59845 5.3764
RightHand  -0.211574 0.867556 -4.0298
LeftUpLeg  19.9565 -0.905093 1.81359
LeftLeg  20.5814 -9.61497 -3.74158
LeftFoot  -19.7252 0.0156521 -1.47145
LeftToes  -4.29285e-010 1.49941e-010 2.15559e-012
425
root  -14.3899 38.0415 11.1257 -11.4065 78.9999 -6.96423
RightUpLeg  -20.7143 -13.0197 0.342475
RightLeg  22.0401 1.23994 0.31998
RightFoot  3.10673 0.168103 -1.16058
RightToes  5.47152e-009 0 -3.6325e-017
Spine  7.80596 -1.74448 10.3143
Spine1  10.331 -0.0126414 -3.19314
HEad  -2.99777 11.766 -8.04376
LeftShoulder1  -0.366546 4.47335 -31.6758
LeftArm  -0.410562 5.68842 -42.8304
LeftForeArm  24.7133 -12.7417 -7.6269
LeftHand  -0.0286988 4.1433 0.372881
RightShoulder  -0.517635 -5.01766 27.3713
RightArm  8.85872 -3.88256 46.6599
RightForeArm  15.0573 6.35469 5.41488
RightHand  -0.191765 0.804177 -3.70484
LeftUpLeg  17.4689 -1.02349 3.88936
LeftLeg  27.8247 -10.4958 -5.63864
LeftFoot  -15.3432 -0.0943215 -5.87305
LeftToes  -4.29285e-010 1.49941e-010 2.15559e-012
426
root  -13.3113 38.1344 11.7485 -17.2548 80.1334 -13.3777
RightUpLeg  -19.8616 -14.1323 1.49937
RightLeg  23.7587 0.910831 0.210371
RightFoot  0.541136 0.194724 -1.81687
RightToes  5.47152e-009 0 -3.6325e-017
Spine  7.68869 -2.05132 11.6585
Spine1  10.3823 -0.284662 -2.00943
HEad  -2.02056 11.5953 -7.91022
LeftShoulder1  -0.344109 4.41173 -31.7677
LeftArm  -1.26493 7.8704 -42.7669
LeftForeArm  28.3107 -10.9374 -8.22516
LeftHand  -0.0224389 5.02246 -1.47003
RightShoulder  -0.494135 -4.959 27.1147
RightArm  8.6146 -3.30319 46.893
RightForeArm  15.0651 7.02426 5.32005
RightHand  -0.186002 1.29086 -3.33694
LeftUpLeg  12.2845 -2.15531 5.66884
LeftLeg  37.5157 -9.45035 -7.31873
LeftFoot  -6.5763 0.363994 -8.51903
LeftToes  -4.29285e-010 1.49941e-010 2.15559e-012
427
root  -12.2694 38.2508 12.3318 -24.8284 81.213 -21.5859
RightUpLeg  -18.5859 -15.2389 2.64372
RightLeg  24.3239 0.593599 0.0592149
RightFoot  -1.79114 0.129876 -1.70059
RightToes  5.47152e-009 0 -3.6325e-017
Spine  7.66232 -2.08314 14.112
Spine1  10.0973 0.143403 -2.48064
HEad  -1.19258 10.1263 -7.23133
LeftShoulder1  -0.341077 4.40663 -31.6368
LeftArm  -1.09661 9.2688 -42.7093
LeftForeArm  32.0961 -9.81311 -8.75501
LeftHand  -0.0163872 4.70293 -1.77644
RightShoulder  -0.571349 -5.17337 27.4517
RightArm  9.31282 -3.184 46.3983
RightForeArm  12.2956 8.99386 5.58216
RightHand  -0.300254 1.17576 -5.47197
LeftUpLeg  5.88156 -3.23983 7.08384
LeftLeg  47.1026 -6.41093 -6.888
LeftFoot  4.65546 1.08651 -7.87014
LeftToes  -4.29285e-010 1.49941e-010 2.15559e-012
428
root  -11.2729 38.3991 12.8812 -29.6655 81.8998 -26.319
RightUpLeg  -16.4695 -15.8093 2.96809
RightLeg  24.495 0.0943135 -0.0358023
RightFoot  -3.81546 0.0812758 -1.62745
RightToes  5.47152e-009 0 -3.6325e-017
Spine  7.94029 -1.85524 15.8696
Spine1  10.3055 0.940669 -3.35539
HEad  -0.440101 8.94297 -6.54003
LeftShoulder1  -0.301085 4.30584 -31.4093
LeftArm  -0.207173 10.6717 -42.7165
LeftForeArm  33.5066 -10.5858 -8.62973
LeftHand  0.00353667 4.02876 -2.22011
RightShoulder  -0.635306 -5.34568 27.7845
RightArm  10.7439 -1.90344 46.046
RightForeArm  10.3536 10.121 5.90075
RightHand  -0.272566 0.728865 -5.24892
LeftUpLeg  0.775342 -3.49215 7.75508
LeftLeg  54.091 -3.16299 -4.23438
LeftFoot  10.6183 1.43038 -7.6608
LeftToes  -4.29285e-010 1.49941e-010 2.15559e-012
